<?xml version="1.0" encoding="utf-8"?>
<!-- Generator: Adobe Illustrator 28.0.0, SVG Export Plug-In . SVG Version: 6.00 Build 0)  -->
<svg version="1.1" id="Layer_1" xmlns="http://www.w3.org/2000/svg" xmlns:xlink="http://www.w3.org/1999/xlink" x="0px" y="0px"
	 viewBox="0 0 39 19" style="enable-background:new 0 0 39 19;" xml:space="preserve">
<style type="text/css">
	.st0{fill-rule:evenodd;clip-rule:evenodd;}
</style>
<g id="g6344" transform="translate(0 -1)">
	<path id="path6348" d="M8.6,3.9v15.7h21.7V3.9h-3.6l-1.2,2.4h1.2v10.9H12.3V6.3h7.2l1.2-2.4H8.6z M9.8,5.1h1.2v1.2H9.8V5.1z
		 M27.9,5.1h1.2v1.2h-1.2V5.1z M9.8,7.5h1.2v1.2H9.8V7.5z M27.9,7.5h1.2v1.2h-1.2V7.5z M9.8,9.9h1.2v1.2H9.8V9.9z M27.9,9.9h1.2v1.2
		h-1.2V9.9z M9.8,12.3h1.2v1.2H9.8V12.3z M27.9,12.3h1.2v1.2h-1.2V12.3z M9.8,14.7h1.2v1.2H9.8V14.7z M27.9,14.7h1.2v1.2h-1.2V14.7z
		 M9.8,17.1h1.2v1.2H9.8V17.1z M27.9,17.1h1.2v1.2h-1.2V17.1z"/>
</g>
<g id="layer1">
	<path id="path4411" class="st0" d="M23.1,0.4l-4.8,9.7v2.4l2.4-1.2l4.8-9.7L23.1,0.4z"/>
</g>
</svg>
