<?xml version="1.0" encoding="utf-8"?>
<!-- Generator: Adobe Illustrator 28.0.0, SVG Export Plug-In . SVG Version: 6.00 Build 0)  -->
<svg version="1.1" id="Layer_1" xmlns="http://www.w3.org/2000/svg" xmlns:xlink="http://www.w3.org/1999/xlink" x="0px" y="0px"
	 viewBox="0 0 39 19" style="enable-background:new 0 0 39 19;" xml:space="preserve">
<style type="text/css">
	.st0{fill-rule:evenodd;clip-rule:evenodd;}
</style>
<path id="path1602" class="st0" d="M12.02,1.43c-0.2-0.01-0.35,0.05-0.45,0.15c-0.72,0.73,1.53,4.13,5.07,7.92
	c-3.54,3.79-5.78,7.19-5.07,7.92c0.72,0.73,4.12-1.52,7.93-5.07c3.81,3.55,7.23,5.8,7.95,5.07c0.72-0.73-1.55-4.13-5.08-7.92
	c3.54-3.79,5.8-7.19,5.08-7.92c-0.72-0.73-4.14,1.52-7.95,5.07C16.22,3.6,13.24,1.48,12.02,1.43L12.02,1.43z"/>
</svg>
