<?xml version="1.0" encoding="utf-8"?>
<!-- Generator: Adobe Illustrator 28.0.0, SVG Export Plug-In . SVG Version: 6.00 Build 0)  -->
<svg version="1.1" id="Layer_1" xmlns="http://www.w3.org/2000/svg" xmlns:xlink="http://www.w3.org/1999/xlink" x="0px" y="0px"
	 viewBox="0 0 39 19" style="enable-background:new 0 0 39 19;" xml:space="preserve">
<g>
	<path d="M28.64,2.22c0-0.02,0-0.02,0-0.02c-0.28-0.37-0.62-0.69-1.01-0.99v0.02C27.32,1.48,27,1.74,26.7,2
		c-0.13-0.07-0.24-0.13-0.35-0.19c-0.15-0.07-0.3-0.15-0.47-0.19c-0.06-0.02-0.11-0.04-0.17-0.04c-0.04-0.41-0.07-0.82-0.13-1.23
		C25.39,0.32,25.21,0.32,25,0.3c-0.06,0-0.11,0-0.15,0c-0.06,0-0.11,0-0.15,0c-0.19,0.02-0.35,0.02-0.52,0.06
		c-0.06,0.39-0.09,0.8-0.11,1.21c-0.07,0-0.13,0.02-0.21,0.04c-0.02,0-0.04,0-0.06,0.02c-0.15,0.04-0.3,0.11-0.45,0.19
		C23.22,1.87,23.11,1.92,23,2c-0.32-0.26-0.62-0.5-0.93-0.77c0,0,0,0-0.02-0.02c-0.07,0.06-0.15,0.11-0.21,0.17
		C21.71,1.47,21.6,1.59,21.5,1.7c-0.17,0.15-0.3,0.34-0.45,0.52c0,0,0,0,0.02,0c0.24,0.32,0.5,0.62,0.77,0.93
		c-0.07,0.11-0.15,0.24-0.21,0.35c-0.07,0.15-0.13,0.32-0.17,0.47c-0.04,0.07-0.06,0.15-0.06,0.21c-0.4,0.04-0.81,0.08-1.2,0.14
		c-0.04,0.19-0.06,0.37-0.06,0.58c0,0.28,0.02,0.56,0.07,0.82c0.39,0.04,0.78,0.07,1.2,0.11c0,0.07,0.02,0.15,0.06,0.21
		c0.04,0.17,0.09,0.32,0.17,0.49c0.07,0.13,0.13,0.26,0.22,0.37c-0.26,0.32-0.52,0.62-0.77,0.93c0.28,0.39,0.62,0.73,1.01,1.01V8.82
		c0.3-0.24,0.62-0.5,0.92-0.77h0.02c0.09,0.06,0.21,0.11,0.3,0.17c0.17,0.07,0.35,0.15,0.52,0.19c0.07,0.02,0.13,0.04,0.19,0.06
		c0.04,0.39,0.07,0.8,0.13,1.21c0.17,0.02,0.34,0.04,0.52,0.04c0.04,0,0.15,0,0.28,0c0.21,0,0.41-0.02,0.62-0.06
		c0.04-0.39,0.07-0.8,0.11-1.21c0.06-0.02,0.11-0.04,0.17-0.06l0,0c0.17-0.04,0.32-0.09,0.47-0.17c0.13-0.06,0.26-0.13,0.39-0.22
		c0,0.02,0,0.02,0.02,0.02c0.3,0.26,0.62,0.52,0.93,0.77c0.06-0.04,0.11-0.07,0.19-0.13c0.11-0.09,0.22-0.21,0.32-0.32
		c0.17-0.17,0.34-0.35,0.49-0.56c-0.26-0.32-0.52-0.64-0.78-0.93c0-0.02,0-0.02,0-0.02c0.06-0.09,0.11-0.21,0.17-0.32
		c0.06-0.15,0.13-0.3,0.17-0.45c0-0.02,0-0.04,0.02-0.04c0-0.07,0.02-0.13,0.04-0.17c0.41-0.04,0.82-0.07,1.21-0.11
		c0.04-0.19,0.04-0.37,0.06-0.56c0-0.06,0-0.11,0-0.17c0-0.04,0-0.09,0-0.15c-0.02-0.19-0.02-0.37-0.06-0.56
		c-0.39-0.04-0.8-0.07-1.21-0.11c-0.02-0.06-0.04-0.11-0.04-0.17c-0.06-0.17-0.11-0.34-0.19-0.5c-0.06-0.11-0.13-0.24-0.19-0.35
		C28.12,2.86,28.38,2.54,28.64,2.22z M23.65,3.77c0.34-0.35,0.75-0.52,1.21-0.5c0.49-0.02,0.88,0.15,1.23,0.5
		c0.34,0.34,0.5,0.75,0.5,1.21c0,0.49-0.17,0.88-0.5,1.23c-0.35,0.34-0.75,0.5-1.23,0.5c-0.47,0-0.88-0.17-1.21-0.5
		c-0.34-0.35-0.5-0.75-0.5-1.23C23.15,4.52,23.32,4.11,23.65,3.77z"/>
	<path d="M24.89,3.51c-0.41,0-0.75,0.15-1.05,0.43c-0.28,0.3-0.43,0.64-0.43,1.05s0.15,0.75,0.43,1.05l0,0
		c0.3,0.3,0.64,0.45,1.05,0.45s0.75-0.15,1.05-0.45l0,0c0.3-0.3,0.43-0.64,0.43-1.05l0,0c0-0.41-0.13-0.75-0.43-1.05
		C25.63,3.66,25.3,3.51,24.89,3.51z M24.1,4.2c0.22-0.21,0.49-0.32,0.78-0.32c0.3,0,0.56,0.11,0.78,0.32
		c0.22,0.22,0.32,0.47,0.32,0.78l0,0c0,0.32-0.09,0.58-0.32,0.78C25.45,6,25.19,6.11,24.89,6.11c-0.3,0-0.56-0.11-0.78-0.34
		c-0.21-0.21-0.32-0.47-0.32-0.78C23.79,4.69,23.9,4.43,24.1,4.2z"/>
	<path d="M20.09,6.58c-0.07-0.04-0.13-0.06-0.19-0.06c-0.22-0.06-0.45-0.09-0.67-0.13c-0.21,0.5-0.37,0.99-0.54,1.48
		c-0.09,0-0.19,0-0.26,0c-0.04,0-0.06,0-0.07,0c-0.22,0.02-0.43,0.04-0.64,0.07c-0.17,0.02-0.34,0.07-0.5,0.13
		c-0.3-0.43-0.62-0.86-0.92-1.27c-0.02-0.02-0.02-0.02-0.02-0.02c-0.11,0.04-0.22,0.07-0.32,0.13c-0.19,0.07-0.35,0.17-0.52,0.28
		c-0.26,0.13-0.5,0.3-0.73,0.5c0,0,0,0,0,0.02c0.22,0.47,0.43,0.93,0.65,1.4c-0.13,0.14-0.24,0.25-0.36,0.4
		c-0.15,0.15-0.28,0.34-0.39,0.52l0,0c-0.06,0.07-0.09,0.15-0.13,0.24c-0.52-0.09-1.05-0.19-1.57-0.26
		c-0.09,0.22-0.19,0.45-0.26,0.69c-0.07,0.37-0.15,0.73-0.19,1.08c0.49,0.19,0.97,0.37,1.46,0.56c0,0.07,0,0.17,0,0.26
		c0,0.21,0.02,0.43,0.07,0.65c0.02,0.19,0.07,0.37,0.13,0.56c-0.43,0.3-0.84,0.6-1.27,0.92c0.22,0.56,0.54,1.08,0.92,1.57
		c0,0,0,0,0.02,0c0.47-0.22,0.93-0.43,1.42-0.65l0,0c0.11,0.11,0.22,0.21,0.34,0.32c0.17,0.15,0.37,0.28,0.6,0.41
		c0.06,0.04,0.13,0.07,0.21,0.13c-0.09,0.5-0.17,1.03-0.24,1.55c0.21,0.09,0.41,0.17,0.64,0.22c0.06,0.02,0.17,0.06,0.35,0.09
		c0.26,0.07,0.52,0.11,0.77,0.15c0.21-0.5,0.39-0.99,0.56-1.49c0.07,0,0.15,0,0.22,0h0.02c0.22,0,0.43-0.02,0.64-0.06
		c0.19-0.04,0.37-0.09,0.56-0.15c0,0,0,0.02,0.02,0.02c0.3,0.43,0.62,0.86,0.92,1.29c0.09-0.06,0.19-0.09,0.26-0.13
		c0.19-0.07,0.35-0.17,0.52-0.26c0.28-0.17,0.54-0.35,0.78-0.56c-0.21-0.49-0.43-0.95-0.65-1.44l0,0c0.11-0.11,0.21-0.22,0.32-0.34
		c0.13-0.17,0.26-0.35,0.37-0.52c0-0.02,0.02-0.04,0.02-0.06c0.04-0.06,0.07-0.13,0.11-0.19c0.52,0.09,1.05,0.17,1.57,0.26
		c0.09-0.22,0.17-0.45,0.24-0.69c0.02-0.06,0.04-0.11,0.06-0.19c0.02-0.06,0.02-0.11,0.06-0.19c0.04-0.24,0.09-0.49,0.11-0.71
		c-0.49-0.21-0.99-0.37-1.48-0.56c0-0.07,0-0.13,0-0.22c0-0.22-0.02-0.47-0.07-0.69c-0.02-0.17-0.07-0.34-0.11-0.5
		c0.43-0.3,0.86-0.62,1.27-0.93c0,0,0,0,0.02,0C24,9.65,23.7,9.13,23.29,8.64l0,0c-0.49,0.21-0.95,0.43-1.42,0.65
		c-0.13-0.13-0.26-0.26-0.39-0.37c-0.17-0.13-0.34-0.26-0.52-0.35c-0.06-0.06-0.13-0.09-0.19-0.13c0.07-0.52,0.17-1.05,0.24-1.57
		c-0.22-0.09-0.47-0.19-0.71-0.26C20.22,6.6,20.14,6.58,20.09,6.58z M16.61,13.56c-0.32-0.54-0.39-1.1-0.22-1.7
		c0.15-0.6,0.5-1.05,1.05-1.36c0.52-0.3,1.1-0.37,1.68-0.22c0.6,0.17,1.06,0.5,1.36,1.05c0.32,0.54,0.39,1.1,0.22,1.7
		c-0.15,0.6-0.5,1.05-1.03,1.35c-0.56,0.32-1.12,0.39-1.7,0.22C17.38,14.44,16.91,14.09,16.61,13.56z"/>
	<path d="M16.72,11.96c-0.15,0.5-0.09,0.99,0.17,1.44h0.02c0.26,0.47,0.65,0.75,1.16,0.9c0.5,0.13,0.99,0.07,1.46-0.19l0,0
		c0.47-0.28,0.75-0.65,0.9-1.16v-0.02c0.13-0.5,0.06-0.99-0.21-1.44c-0.26-0.47-0.65-0.77-1.16-0.9c-0.5-0.15-1.01-0.07-1.46,0.19
		C17.13,11.04,16.85,11.43,16.72,11.96z M17.84,11.21c0.35-0.21,0.71-0.26,1.08-0.15c0.37,0.09,0.67,0.32,0.88,0.67
		c0.21,0.34,0.24,0.71,0.15,1.08c-0.11,0.37-0.34,0.67-0.67,0.86v0.02c-0.35,0.19-0.71,0.24-1.08,0.13
		c-0.39-0.09-0.67-0.32-0.88-0.67c-0.19-0.34-0.24-0.69-0.15-1.08C17.28,11.7,17.51,11.42,17.84,11.21z"/>
</g>
</svg>
