<?xml version="1.0" encoding="utf-8"?>
<!-- Generator: Adobe Illustrator 28.0.0, SVG Export Plug-In . SVG Version: 6.00 Build 0)  -->
<svg version="1.1" id="Layer_1" xmlns="http://www.w3.org/2000/svg" xmlns:xlink="http://www.w3.org/1999/xlink" x="0px" y="0px"
	 viewBox="0 0 800 800" style="enable-background:new 0 0 800 800;" xml:space="preserve">
<style type="text/css">
	.st0{stroke:#000000;stroke-miterlimit:10;enable-background:new    ;}
</style>
<path d="M277.2,72.5C140.6,123.6,50.1,254.1,50,400c0.1,134.4,77.3,256.9,198.4,315.1l-38.5,60c33.1,4.7,67.6,8.4,103.5,11
	c35.5,2.3,70.5,3.7,104.8,3.9c-29.7-63-63.1-124.2-100.2-183.2h0l-42.2,65.9C168.8,624,100.2,517.5,100,400
	c0-128.6,81-238,194.8-280.6L277.2,72.5z M381.8,10.1c29.7,63,63.1,124.2,100.2,183.2h0.1l42.2-65.9C631.2,176,699.8,282.6,700,400
	c0,128.6-81,238-194.7,280.7l17.5,46.8C659.4,676.3,749.9,545.8,750,400c-0.1-134.4-77.3-256.9-198.5-315.1L590,24.9
	c-34.4-4.8-68.9-8.5-103.5-10.9C451.6,11.6,416.7,10.3,381.8,10.1z"/>
<path class="st0" d="M400,200c-55.4,0-100,44.6-100,100v50h-50v200h300V350h-50v-50C500,244.6,455.4,200,400,200z M400,250
	c27.7,0,50,22.3,50,50v50H350v-50C350,272.3,372.3,250,400,250z"/>
</svg>
